<mxfile host="app.diagrams.net" modified="2024-07-15T03:50:20.672Z" agent="Mozilla/5.0 (Windows NT 10.0; Win64; x64) AppleWebKit/537.36 (KHTML, like Gecko) Chrome/126.0.0.0 Safari/537.36" etag="cx6sk5vC6epfrAdIBzKT" version="24.6.5" type="device">
  <diagram id="C5RBs43oDa-KdzZeNtuy" name="Page-1">
    <mxGraphModel dx="1956" dy="1040" grid="1" gridSize="10" guides="1" tooltips="1" connect="1" arrows="1" fold="1" page="1" pageScale="1" pageWidth="827" pageHeight="1169" math="0" shadow="0">
      <root>
        <mxCell id="WIyWlLk6GJQsqaUBKTNV-0" />
        <mxCell id="WIyWlLk6GJQsqaUBKTNV-1" parent="WIyWlLk6GJQsqaUBKTNV-0" />
        <mxCell id="HagPFZxe7rRqDRax3dCb-19" style="edgeStyle=orthogonalEdgeStyle;rounded=0;orthogonalLoop=1;jettySize=auto;html=1;exitX=0.5;exitY=1;exitDx=0;exitDy=0;" edge="1" parent="WIyWlLk6GJQsqaUBKTNV-1" source="HagPFZxe7rRqDRax3dCb-1" target="HagPFZxe7rRqDRax3dCb-2">
          <mxGeometry relative="1" as="geometry" />
        </mxCell>
        <mxCell id="HagPFZxe7rRqDRax3dCb-1" value="start" style="ellipse;whiteSpace=wrap;html=1;" vertex="1" parent="WIyWlLk6GJQsqaUBKTNV-1">
          <mxGeometry x="230" y="220" width="120" height="80" as="geometry" />
        </mxCell>
        <mxCell id="HagPFZxe7rRqDRax3dCb-20" style="edgeStyle=orthogonalEdgeStyle;rounded=0;orthogonalLoop=1;jettySize=auto;html=1;exitX=0.5;exitY=1;exitDx=0;exitDy=0;entryX=0.5;entryY=0;entryDx=0;entryDy=0;" edge="1" parent="WIyWlLk6GJQsqaUBKTNV-1" source="HagPFZxe7rRqDRax3dCb-2" target="HagPFZxe7rRqDRax3dCb-4">
          <mxGeometry relative="1" as="geometry" />
        </mxCell>
        <mxCell id="HagPFZxe7rRqDRax3dCb-2" value="Enter full name" style="rounded=1;whiteSpace=wrap;html=1;" vertex="1" parent="WIyWlLk6GJQsqaUBKTNV-1">
          <mxGeometry x="230" y="340" width="120" height="60" as="geometry" />
        </mxCell>
        <mxCell id="HagPFZxe7rRqDRax3dCb-21" style="edgeStyle=orthogonalEdgeStyle;rounded=0;orthogonalLoop=1;jettySize=auto;html=1;exitX=0.5;exitY=1;exitDx=0;exitDy=0;entryX=0.5;entryY=0;entryDx=0;entryDy=0;" edge="1" parent="WIyWlLk6GJQsqaUBKTNV-1" source="HagPFZxe7rRqDRax3dCb-4" target="HagPFZxe7rRqDRax3dCb-6">
          <mxGeometry relative="1" as="geometry" />
        </mxCell>
        <mxCell id="HagPFZxe7rRqDRax3dCb-4" value="Enter email" style="rounded=1;whiteSpace=wrap;html=1;" vertex="1" parent="WIyWlLk6GJQsqaUBKTNV-1">
          <mxGeometry x="230" y="430" width="120" height="60" as="geometry" />
        </mxCell>
        <mxCell id="HagPFZxe7rRqDRax3dCb-22" style="edgeStyle=orthogonalEdgeStyle;rounded=0;orthogonalLoop=1;jettySize=auto;html=1;exitX=0.5;exitY=1;exitDx=0;exitDy=0;entryX=0.5;entryY=0;entryDx=0;entryDy=0;" edge="1" parent="WIyWlLk6GJQsqaUBKTNV-1" source="HagPFZxe7rRqDRax3dCb-6" target="HagPFZxe7rRqDRax3dCb-11">
          <mxGeometry relative="1" as="geometry" />
        </mxCell>
        <mxCell id="HagPFZxe7rRqDRax3dCb-6" value="Enter password" style="rounded=1;whiteSpace=wrap;html=1;" vertex="1" parent="WIyWlLk6GJQsqaUBKTNV-1">
          <mxGeometry x="230" y="525" width="120" height="60" as="geometry" />
        </mxCell>
        <mxCell id="HagPFZxe7rRqDRax3dCb-10" value="&lt;span style=&quot;color: rgba(0, 0, 0, 0); font-family: monospace; font-size: 0px; text-align: start;&quot;&gt;%3CmxGraphModel%3E%3Croot%3E%3CmxCell%20id%3D%220%22%2F%3E%3CmxCell%20id%3D%221%22%20parent%3D%220%22%2F%3E%3CmxCell%20id%3D%222%22%20value%3D%22Enter%20password%22%20style%3D%22rounded%3D1%3BwhiteSpace%3Dwrap%3Bhtml%3D1%3B%22%20vertex%3D%221%22%20parent%3D%221%22%3E%3CmxGeometry%20x%3D%22230%22%20y%3D%22640%22%20width%3D%22120%22%20height%3D%2260%22%20as%3D%22geometry%22%2F%3E%3C%2FmxCell%3E%3CmxCell%20id%3D%223%22%20value%3D%22Password%20entered%26amp%3Bnbsp%3B%26amp%3Bnbsp%3B%22%20style%3D%22rhombus%3BwhiteSpace%3Dwrap%3Bhtml%3D1%3B%22%20vertex%3D%221%22%20parent%3D%221%22%3E%3CmxGeometry%20x%3D%22240%22%20y%3D%22730%22%20width%3D%22100%22%20height%3D%22100%22%20as%3D%22geometry%22%2F%3E%3C%2FmxCell%3E%3C%2Froot%3E%3C%2FmxGraphModel%3E&lt;/span&gt;" style="text;html=1;align=center;verticalAlign=middle;resizable=0;points=[];autosize=1;strokeColor=none;fillColor=none;" vertex="1" parent="WIyWlLk6GJQsqaUBKTNV-1">
          <mxGeometry x="600" y="848" width="20" height="30" as="geometry" />
        </mxCell>
        <mxCell id="HagPFZxe7rRqDRax3dCb-23" style="edgeStyle=orthogonalEdgeStyle;rounded=0;orthogonalLoop=1;jettySize=auto;html=1;exitX=0.5;exitY=1;exitDx=0;exitDy=0;entryX=0.5;entryY=0;entryDx=0;entryDy=0;" edge="1" parent="WIyWlLk6GJQsqaUBKTNV-1" source="HagPFZxe7rRqDRax3dCb-11" target="HagPFZxe7rRqDRax3dCb-13">
          <mxGeometry relative="1" as="geometry" />
        </mxCell>
        <mxCell id="HagPFZxe7rRqDRax3dCb-11" value="confirm password" style="rounded=1;whiteSpace=wrap;html=1;" vertex="1" parent="WIyWlLk6GJQsqaUBKTNV-1">
          <mxGeometry x="230" y="610" width="120" height="60" as="geometry" />
        </mxCell>
        <mxCell id="HagPFZxe7rRqDRax3dCb-24" style="edgeStyle=orthogonalEdgeStyle;rounded=0;orthogonalLoop=1;jettySize=auto;html=1;exitX=0.5;exitY=1;exitDx=0;exitDy=0;entryX=0.5;entryY=0;entryDx=0;entryDy=0;" edge="1" parent="WIyWlLk6GJQsqaUBKTNV-1" source="HagPFZxe7rRqDRax3dCb-13" target="HagPFZxe7rRqDRax3dCb-15">
          <mxGeometry relative="1" as="geometry" />
        </mxCell>
        <mxCell id="HagPFZxe7rRqDRax3dCb-13" value="Enter DOB" style="rounded=1;whiteSpace=wrap;html=1;" vertex="1" parent="WIyWlLk6GJQsqaUBKTNV-1">
          <mxGeometry x="230" y="700" width="120" height="60" as="geometry" />
        </mxCell>
        <mxCell id="HagPFZxe7rRqDRax3dCb-25" style="edgeStyle=orthogonalEdgeStyle;rounded=0;orthogonalLoop=1;jettySize=auto;html=1;exitX=0.5;exitY=1;exitDx=0;exitDy=0;entryX=0.5;entryY=0;entryDx=0;entryDy=0;" edge="1" parent="WIyWlLk6GJQsqaUBKTNV-1" source="HagPFZxe7rRqDRax3dCb-15" target="HagPFZxe7rRqDRax3dCb-16">
          <mxGeometry relative="1" as="geometry" />
        </mxCell>
        <mxCell id="HagPFZxe7rRqDRax3dCb-15" value="Selected Gender" style="rounded=1;whiteSpace=wrap;html=1;" vertex="1" parent="WIyWlLk6GJQsqaUBKTNV-1">
          <mxGeometry x="230" y="788" width="120" height="60" as="geometry" />
        </mxCell>
        <mxCell id="HagPFZxe7rRqDRax3dCb-26" style="edgeStyle=orthogonalEdgeStyle;rounded=0;orthogonalLoop=1;jettySize=auto;html=1;exitX=0.5;exitY=1;exitDx=0;exitDy=0;entryX=0.5;entryY=0;entryDx=0;entryDy=0;" edge="1" parent="WIyWlLk6GJQsqaUBKTNV-1" source="HagPFZxe7rRqDRax3dCb-16" target="HagPFZxe7rRqDRax3dCb-17">
          <mxGeometry relative="1" as="geometry" />
        </mxCell>
        <mxCell id="HagPFZxe7rRqDRax3dCb-29" value="yes" style="edgeLabel;html=1;align=center;verticalAlign=middle;resizable=0;points=[];" vertex="1" connectable="0" parent="HagPFZxe7rRqDRax3dCb-26">
          <mxGeometry x="-0.3333" y="1" relative="1" as="geometry">
            <mxPoint as="offset" />
          </mxGeometry>
        </mxCell>
        <mxCell id="HagPFZxe7rRqDRax3dCb-27" style="edgeStyle=orthogonalEdgeStyle;rounded=0;orthogonalLoop=1;jettySize=auto;html=1;exitX=1;exitY=0.5;exitDx=0;exitDy=0;entryX=1;entryY=0.5;entryDx=0;entryDy=0;" edge="1" parent="WIyWlLk6GJQsqaUBKTNV-1" source="HagPFZxe7rRqDRax3dCb-16" target="HagPFZxe7rRqDRax3dCb-17">
          <mxGeometry relative="1" as="geometry" />
        </mxCell>
        <mxCell id="HagPFZxe7rRqDRax3dCb-30" value="no" style="edgeLabel;html=1;align=center;verticalAlign=middle;resizable=0;points=[];" vertex="1" connectable="0" parent="HagPFZxe7rRqDRax3dCb-27">
          <mxGeometry x="-0.28" y="1" relative="1" as="geometry">
            <mxPoint as="offset" />
          </mxGeometry>
        </mxCell>
        <mxCell id="HagPFZxe7rRqDRax3dCb-16" value="&lt;span id=&quot;docs-internal-guid-5868fe3d-7fff-6909-cbea-436f5404f2b1&quot;&gt;&lt;span style=&quot;font-size: 11pt; font-family: Arial, sans-serif; background-color: transparent; font-variant-numeric: normal; font-variant-east-asian: normal; font-variant-alternates: normal; font-variant-position: normal; vertical-align: baseline; white-space-collapse: preserve;&quot;&gt;Newsletter Subscription (Yes/No)&lt;/span&gt;&lt;/span&gt;" style="rhombus;whiteSpace=wrap;html=1;" vertex="1" parent="WIyWlLk6GJQsqaUBKTNV-1">
          <mxGeometry x="160" y="878" width="260" height="192" as="geometry" />
        </mxCell>
        <mxCell id="HagPFZxe7rRqDRax3dCb-28" style="edgeStyle=orthogonalEdgeStyle;rounded=0;orthogonalLoop=1;jettySize=auto;html=1;exitX=0.5;exitY=1;exitDx=0;exitDy=0;entryX=0.5;entryY=0;entryDx=0;entryDy=0;" edge="1" parent="WIyWlLk6GJQsqaUBKTNV-1" source="HagPFZxe7rRqDRax3dCb-17" target="HagPFZxe7rRqDRax3dCb-18">
          <mxGeometry relative="1" as="geometry" />
        </mxCell>
        <mxCell id="HagPFZxe7rRqDRax3dCb-17" value="&lt;b&gt;Submitt&lt;/b&gt;" style="rounded=1;whiteSpace=wrap;html=1;" vertex="1" parent="WIyWlLk6GJQsqaUBKTNV-1">
          <mxGeometry x="230" y="1109" width="120" height="60" as="geometry" />
        </mxCell>
        <mxCell id="HagPFZxe7rRqDRax3dCb-18" value="End" style="ellipse;whiteSpace=wrap;html=1;" vertex="1" parent="WIyWlLk6GJQsqaUBKTNV-1">
          <mxGeometry x="230" y="1210" width="120" height="80" as="geometry" />
        </mxCell>
      </root>
    </mxGraphModel>
  </diagram>
</mxfile>
